# xmcd
#
# Track frame offsets: 
#        150
#        15285
#        30270
#        46055
#        64137
#        81967
#        93612
#        106992
#        126770
#        145257
#
# Disc length: 2128 seconds
#
# Revision: 3
# Processed by: cddbd v1.5.2PL0 Copyright (c) Steve Scherf et al.
# Submitted via: ExactAudioCopyFreeDBPlugin 1.0
#
DISCID=76084e0a
DTITLE=Maylene and The Sons Of Disaster - Maylene and The Sons Of Disaster
DYEAR=2005
DGENRE=Southern Metal
TTITLE0=Caution: Dangerous Curves Ahead
TTITLE1=The Road Home To Panther Creek
TTITLE2=Bang! The Witch Is Dead
TTITLE3=Tough As John Jacobs
TTITLE4=Gusty Like The Wind
TTITLE5=The Mind Of A Grimes
TTITLE6=Lady At The Gate
TTITLE7=Never Stop Haunting
TTITLE8=Hell On The Rise
TTITLE9=Just Wanted To Make Mother Proud
EXTD=
EXTT0=
EXTT1=
EXTT2=
EXTT3=
EXTT4=
EXTT5=
EXTT6=
EXTT7=
EXTT8=
EXTT9=
PLAYORDER=
